<svg viewBox="0 0 111.6 30.5" xmlns="http://www.w3.org/2000/svg"><path d="m19.6 8.4-4.3 8.5 2.8 1.6 1.5-2.6z" fill="#d2d3d1"/><path d="m22 10.4-6.7 6.5 4.3 8.3z"/><path d="m29.3 19.1h-1.5l-.7 4h-3.9l2.2-12.5h5.5c3.1 0 4.4 1.8 4 4.3-.4 2.3-2.3 4.2-5.5 4.2zm.1-3.1c.9 0 1.3-.5 1.4-1.1s-.1-1.1-1-1.1h-1.1l-.4 2.3h1.1z"/><path d="m42.6 10.6c3.1 0 4.4 1.8 4 4.1-.3 1.6-1.4 3-3.3 3.6l1.9 4.8h-4.3l-1.6-4.5-.8 4.5h-3.9l2.2-12.5zm-1 3.3h-1.5l-.4 2.1h1.5c.7 0 1.2-.3 1.3-1.1.1-.6-.2-1.1-.9-1.1z"/><path d="m52.4 23.2c-3.2 0-5.3-2.1-5.3-5.2 0-4.5 3-7.6 7.3-7.6s5.3 2.1 5.3 5.2c0 4.5-3 7.6-7.4 7.6zm.6-3.7c1.9 0 3-1.7 3-3.5s-.7-2-2-2c-1.9 0-3 1.6-3 3.5s.7 2.1 2 2.1z"/><path d="m73 16.8c-.6 3.6-3.6 6.3-7.6 6.3h-5.2l2.2-12.5h5.2c4 0 6 2.6 5.4 6.2zm-7.3 2.8c1.7 0 3-1 3.4-2.8.3-1.8-.7-2.8-2.4-2.8h-.9l-1 5.6z"/><path d="m75.4 10.6h3.9l-1.2 7c-.2 1.1 0 1.9 1.3 1.9s1.8-.8 2-1.9l1.2-7h3.9l-1.2 7c-.7 3.8-3.4 5.6-6.6 5.6s-5.1-1.9-4.5-5.6z"/><path d="m93.9 10.5c3.3 0 5.2 2 5.2 4.9h-4.1c-.2-.8-.9-1.3-1.8-1.3-1.3 0-2.3 1.1-2.6 2.7-.3 1.7.3 2.7 1.7 2.7s1.7-.5 2.2-1.3h4.1c-1 2.9-3.6 4.9-6.9 4.9s-5.7-2.6-5-6.3 3.4-6.3 7.3-6.3z"/><path d="m100.6 10.6h10.5l-.5 3.1h-3.3l-1.7 9.4h-3.9l1.7-9.4h-3.3z"/><path d="m.5 0 8.4 16.9-6.6 13.6 5.7-3.4 3-6 3.1 6.3 3.2-1.7-4.3-8.8 5.7-11.4-4.6.9-3.1 6.2-5.6-11.2z"/></svg>